<svg width="184" height="44" viewBox="0 0 184 44" fill="none" xmlns="http://www.w3.org/2000/svg">
<path d="M35.5986 0C38.1267 0 40.1768 2.0277 40.1768 4.52734L40.1768 31.8662C40.1944 32.2849 40.3734 32.6806 40.6768 32.9697C40.9802 33.2589 41.3845 33.4186 41.8037 33.416C42.2225 33.418 42.6258 33.2578 42.9287 32.9688C43.2316 32.6797 43.4111 32.2845 43.4287 31.8662L43.4287 15.5254C43.4319 14.9338 43.551 14.3481 43.7803 13.8027C44.0096 13.2575 44.3442 12.7627 44.7646 12.3467C45.1852 11.9306 45.6837 11.6014 46.2314 11.3779C46.7791 11.1545 47.3656 11.0408 47.957 11.0439C48.5488 11.0408 49.1357 11.1544 49.6836 11.3779C50.2315 11.6015 50.7298 11.9314 51.1504 12.3477C51.571 12.764 51.9056 13.2591 52.1348 13.8047C52.3639 14.3503 52.4835 14.9356 52.4863 15.5273L52.4863 29.876C52.4839 30.2519 52.3327 30.6116 52.0654 30.876C51.7981 31.1404 51.4366 31.2879 51.0605 31.2861C50.8742 31.2873 50.6892 31.2519 50.5166 31.1816C50.3441 31.1114 50.1872 31.0078 50.0547 30.877C49.9221 30.746 49.8165 30.5897 49.7441 30.418C49.6718 30.2463 49.634 30.0622 49.6328 29.876L49.6328 15.5273C49.6317 15.3086 49.5867 15.0923 49.502 14.8906C49.4172 14.689 49.2941 14.5055 49.1387 14.3516C48.9831 14.1976 48.7983 14.0758 48.5957 13.9932C48.3931 13.9105 48.1758 13.868 47.957 13.8691C47.7384 13.868 47.5218 13.9106 47.3193 13.9932C47.1167 14.0758 46.9319 14.1976 46.7764 14.3516C46.6209 14.5055 46.4969 14.6889 46.4121 14.8906C46.3274 15.0922 46.2834 15.3087 46.2822 15.5273L46.2822 31.8682C46.279 32.4531 46.1604 33.0321 45.9336 33.5713C45.7069 34.1102 45.3766 34.5995 44.9609 35.0107C44.545 35.4222 44.0515 35.7478 43.5098 35.9688C42.9682 36.1896 42.3885 36.302 41.8037 36.2988C41.2187 36.302 40.6384 36.1897 40.0967 35.9688C39.555 35.7478 39.0624 35.4221 38.6465 35.0107C38.2307 34.5994 37.8996 34.1104 37.6729 33.5713C37.4461 33.0321 37.3274 32.4531 37.3242 31.8682L37.3242 4.53125C37.306 4.08712 37.1163 3.66745 36.7949 3.36035C36.4736 3.05336 36.046 2.88278 35.6016 2.88477C35.157 2.88211 34.7281 3.05166 34.4062 3.3584C34.0844 3.66513 33.8947 4.08511 33.876 4.5293L33.874 39.3096C33.8671 40.4906 33.3906 41.6207 32.5508 42.4512C31.7109 43.2816 30.5756 43.7447 29.3945 43.7383C28.8096 43.7414 28.2301 43.6291 27.6885 43.4082C27.1468 43.1873 26.6532 42.8626 26.2373 42.4512C25.8214 42.0398 25.4914 41.5499 25.2646 41.0107C25.0379 40.4715 24.9192 39.8926 24.916 39.3076V35.0781C24.9161 34.2997 25.5546 33.668 26.3418 33.668C27.129 33.668 27.7675 34.2997 27.7676 35.0781V39.3076C27.7676 39.8827 28.0781 40.4144 28.5811 40.7031C29.084 40.9896 29.7051 40.9895 30.208 40.7031C30.4548 40.5632 30.6608 40.3603 30.8037 40.1152C30.9466 39.8702 31.0213 39.5913 31.0215 39.3076L31.0215 4.52734C31.0215 2.02784 33.0707 0.000236711 35.5986 0ZM23.1904 0C25.7185 4.05966e-06 27.7676 2.0277 27.7676 4.52734L27.7676 29.7266C27.7667 29.9128 27.7294 30.0978 27.6572 30.2695C27.5851 30.441 27.4799 30.5967 27.3477 30.7275C27.2153 30.8585 27.0582 30.9629 26.8857 31.0332C26.7132 31.1035 26.5281 31.1388 26.3418 31.1377C26.1555 31.1388 25.9704 31.1035 25.7979 31.0332C25.6254 30.9629 25.4683 30.8585 25.3359 30.7275C25.2037 30.5967 25.0984 30.441 25.0264 30.2695C24.9542 30.0978 24.9169 29.9128 24.916 29.7266L24.916 4.52734C24.9131 4.0725 24.7297 3.6372 24.4062 3.31738C24.0827 2.99755 23.6454 2.81896 23.1904 2.82129C22.7355 2.81896 22.2981 2.99754 21.9746 3.31738C21.6512 3.6372 21.4677 4.0725 21.4648 4.52734L21.4648 35.1719C21.4579 36.3658 20.9776 37.5088 20.1289 38.3486C19.2801 39.1884 18.1316 39.6572 16.9375 39.6514C15.7433 39.6576 14.5953 39.1893 13.7461 38.3496C12.8968 37.5097 12.4161 36.3663 12.4092 35.1719L12.4092 15.5273C12.408 15.3086 12.3631 15.0923 12.2783 14.8906C12.1936 14.689 12.0705 14.5054 11.915 14.3516C11.7595 14.1976 11.5747 14.0758 11.3721 13.9932C11.1694 13.9105 10.9522 13.868 10.7334 13.8691C10.5148 13.868 10.2981 13.9106 10.0957 13.9932C9.89308 14.0758 9.70829 14.1976 9.55273 14.3516C9.3972 14.5055 9.27328 14.6889 9.18848 14.8906C9.10378 15.0922 9.05974 15.3087 9.05859 15.5273L9.05859 23.8379C9.0554 24.4294 8.93532 25.0143 8.70605 25.5596C8.47675 26.1049 8.14221 26.5995 7.72168 27.0156C7.30111 27.4317 6.80268 27.7609 6.25488 27.9844C5.70712 28.2078 5.12088 28.3215 4.5293 28.3184C3.93771 28.3215 3.35148 28.2078 2.80371 27.9844C2.25592 27.7609 1.75749 27.4317 1.33691 27.0156C0.916396 26.5995 0.581836 26.1049 0.352539 25.5596C0.123283 25.0143 0.0031943 24.4294 0 23.8379L0 20.8242C0 20.0436 0.638619 19.4113 1.42578 19.4111C2.21308 19.4111 2.85449 20.0457 2.85449 20.8242L2.85449 23.8379C2.85468 24.7519 3.60435 25.4931 4.5293 25.4932C5.45426 25.4932 6.20392 24.7519 6.2041 23.8379L6.2041 15.5254C6.21104 14.3313 6.69217 13.1885 7.54102 12.3486C8.38985 11.5089 9.53741 11.0401 10.7314 11.0459C11.9257 11.0395 13.0736 11.508 13.9229 12.3477C14.7722 13.1875 15.2538 14.331 15.2607 15.5254L15.2607 35.1719C15.2607 36.088 16.0105 36.8298 16.9375 36.8301C17.8626 36.8301 18.6133 36.0882 18.6133 35.1719L18.6133 4.52734C18.6133 2.0277 20.6623 0 23.1904 0ZM153.39 11.2695C153.926 11.2241 158.21 11.1358 158.318 11.3525C159.12 12.9608 159.87 15.6422 160.409 17.3691L162.187 22.8711L163.78 27.8936C164.218 29.2422 164.698 30.5252 165.01 31.9199C163.68 31.9933 161.691 31.879 160.601 31.9893C160.359 31.1806 159.98 29.5283 159.581 28.8145C159.494 28.6595 158.489 28.7018 158.225 28.7031C156.653 28.7232 153.513 28.7971 152.035 28.6738C151.917 29.3222 151.379 31.3615 151.035 31.8223C150.832 32.0914 147.09 32.0553 146.803 31.7607C147.01 30.413 147.556 28.8505 147.985 27.5488L149.345 23.3418C150.101 20.9477 150.87 18.5566 151.653 16.1709C151.921 15.3361 152.966 11.7578 153.39 11.2695ZM166.659 11.3037C167.415 11.2109 170.764 11.0526 171.222 11.4971C171.98 12.8937 172.915 14.4016 173.706 15.8047C174.178 16.7009 174.671 17.5366 175.185 18.4082C175.504 17.9682 175.76 17.5168 176.033 17.0488C177.158 15.1233 178.174 13.1531 179.348 11.2549C179.952 11.212 183.186 11.1323 183.568 11.3691C183.648 11.6422 183.436 12.0473 183.299 12.29C181.622 15.2436 179.867 18.1557 178.164 21.0918C177.642 21.9938 178.71 23.1571 179.181 23.9844C179.595 24.7048 180.028 25.4947 180.458 26.2002C180.927 26.9193 181.568 28.1238 182.028 28.8838C182.446 29.5742 183.452 31.2295 183.703 31.9111C182.399 31.9923 180.534 31.9721 179.237 31.915C179.14 31.7148 178.651 30.9473 178.533 30.7773C178.022 30.0397 175.653 25.3345 175.187 25.0762C173.806 27.0036 172.518 30.1445 171.126 31.9033C169.857 32.076 167.934 31.9591 166.613 31.9053C167.209 31.0953 167.766 29.8028 168.302 28.9014L170.92 24.5303C171.464 23.6236 172.129 22.5995 172.544 21.6396C171.24 19.3481 169.938 17.1299 168.593 14.8643C168.174 14.1583 166.874 11.9993 166.659 11.3037ZM83.9473 11.2246C84.5242 11.2207 86.8454 11.1458 87.2471 11.3623C87.5324 12.2897 87.4182 15.4768 87.417 16.5879L87.415 23.7666L87.4121 28.6387C87.4076 29.5985 87.4328 30.9307 87.292 31.8418C86.9789 32.0338 83.7502 32.0148 83.4492 31.8799C83.1776 31.5541 83.3167 30.7752 83.3145 30.3125L83.3115 23.8457C83.3105 22.0429 83.2153 20.0673 83.2354 18.332C83.0685 18.6338 79.9202 23.4668 79.7959 23.5596C79.3857 23.8643 78.1725 23.7757 77.6914 23.6621C77.5387 23.6258 77.4177 23.5764 77.3115 23.457C76.8959 22.9891 76.5581 22.36 76.2148 21.833C75.4551 20.676 74.7109 19.5085 73.9824 18.332C73.9069 19.1381 73.8622 20.3644 73.9531 21.1689L73.9961 28.418C73.9932 29.6391 74.0254 30.6702 73.9668 31.916C72.7096 31.9893 71.0667 31.9861 69.8125 31.9238C69.7185 30.4929 69.7586 28.7144 69.7588 27.2607L69.7939 19.0244C69.8007 17.7609 69.6784 12.1397 69.9473 11.3428C70.4248 11.1228 73.0569 11.2436 73.7334 11.2695C74.2282 11.7796 74.9097 12.891 75.3252 13.5225C76.4308 15.2034 77.4424 16.8841 78.585 18.5449L81.3125 14.3496C81.8949 13.4384 82.4741 12.4768 83.1338 11.6221C83.409 11.2658 83.5058 11.2674 83.9473 11.2246ZM111.009 11.3672C111.302 11.1511 114.483 11.1411 114.778 11.3818C115.022 12.1624 114.909 15.1298 114.908 16.0986L114.903 23.8809C114.903 24.7784 115.028 31.3665 114.868 31.8701L114.706 31.9287C113.527 31.9566 112.16 31.9857 110.993 31.9033C110.445 31.316 109.409 29.4061 108.928 28.6162L105.227 22.542C104.452 21.2674 103.82 20.1341 102.979 18.8926C102.803 21.8759 102.981 25.0317 102.945 28.0293C102.932 29.1825 103.024 30.8869 102.886 31.9824C101.825 31.8411 100.158 32.0271 98.8643 31.8818C98.7763 31.0265 98.8135 29.6281 98.8164 28.75L98.8242 23.8643V17.0107C98.8213 15.998 98.6795 11.946 99.0996 11.2734C99.9336 11.2085 101.957 11.1762 102.769 11.2949C103.814 12.7941 104.707 14.4076 105.651 15.9756C107.335 18.7966 109.062 21.5916 110.831 24.3594C110.734 20.3137 110.912 16.1253 110.842 12.0674C110.837 11.7903 110.851 11.6027 111.009 11.3672ZM140.741 11.2178C141.457 11.2152 143.509 11.104 143.986 11.4521C144.258 12.1063 144.128 29.832 144.068 31.917C143.401 31.9475 140.424 32.0731 139.964 31.8223C139.767 31.2667 139.852 28.0473 139.842 27.249C139.804 24.3702 139.931 21.4186 139.786 18.5371C139.479 19.0641 138.844 19.9776 138.475 20.5117C137.828 21.4469 137.013 22.9734 136.224 23.7197C135.908 23.7308 134.628 23.793 134.411 23.7119C133.679 23.4381 132.606 21.3154 132.188 20.7197C131.632 19.9235 131.157 19.214 130.686 18.4658C130.621 19.486 130.596 20.442 130.576 21.4648C130.546 24.2392 130.581 27.019 130.575 29.7939C130.574 30.522 130.588 31.2361 130.551 31.9648C129.584 31.8889 127.55 31.9462 126.487 31.9287C126.409 27.1243 126.521 22.2068 126.487 17.3926C126.479 16.2139 126.381 12.2822 126.607 11.3682C127.02 11.1053 129.822 11.2323 130.42 11.2881C130.952 11.8444 131.86 13.3287 132.297 14.0244C132.899 14.9836 133.512 15.9359 134.137 16.8809C134.457 17.3696 134.886 18.1018 135.316 18.4697C135.678 17.6686 137.185 15.5873 137.725 14.7178C138.324 13.7508 139.211 12.3578 139.916 11.4609C140.12 11.2014 140.423 11.2281 140.741 11.2178ZM91.8477 11.2158C92.7786 11.2106 93.9524 11.1801 94.8623 11.2754C95.2557 11.3169 95.1515 13.6987 95.1543 14.0654L95.1602 19.4756L95.1621 26.793C95.1647 27.5799 95.2798 31.418 95 31.8955C94.7809 31.9974 94.8217 31.9612 94.5469 31.9443C93.6922 31.9988 91.9106 31.9465 91.0615 31.9063C90.9976 30.7473 91.0423 29.1954 91.0439 28.0156L91.0498 21.0332L91.042 15.6533C91.0353 14.221 90.9932 12.7211 91.126 11.2998C91.3546 11.2628 91.615 11.2411 91.8477 11.2158ZM119.655 11.2188C120.272 11.2155 122.177 11.1572 122.653 11.3467C122.952 12.0468 122.794 29.6821 122.776 31.918L121.771 31.9385C120.863 31.9891 119.586 31.9592 118.666 31.9248C118.749 30.1634 118.706 28.0973 118.706 26.3223L118.704 16.9297C118.704 15.2001 118.691 13.4193 118.725 11.6885C118.728 11.5288 118.744 11.4573 118.848 11.3398C119.093 11.1999 119.362 11.2265 119.655 11.2188ZM155.771 16.5498C155.44 17.607 153.106 24.9271 153.157 25.4268C153.412 25.6583 155.595 25.5749 156.063 25.5723C156.865 25.571 157.812 25.583 158.603 25.4824C158.107 24.3138 156.132 16.8518 155.771 16.5498ZM171.742 11.46C172.098 12.3406 172.87 13.0239 173.049 13.9688C173.081 14.1394 173.093 14.2657 173.214 14.3799L173.258 14.2002C173.488 14.3624 173.871 15.2581 173.999 15.5488L173.956 15.6299L173.785 15.6572L173.707 15.8037C172.916 14.4006 171.981 12.8927 171.223 11.4961C171.373 11.476 171.428 11.4758 171.552 11.3857L171.742 11.46Z" fill="white"/>
</svg>
