<svg width="405" height="406" viewBox="0 0 405 406" fill="none" xmlns="http://www.w3.org/2000/svg">
<g filter="url(#filter0_d_136_1878)">
<path d="M79.7891 202.185C79.7891 134.587 134.587 79.7891 202.185 79.7891V79.7891C269.782 79.7891 324.58 134.587 324.58 202.185V202.185C324.58 269.782 269.782 324.58 202.185 324.58V324.58C134.587 324.58 79.7891 269.782 79.7891 202.185V202.185Z" fill="#F84600"/>
</g>
<g filter="url(#filter1_dddd_136_1878)">
<path d="M123.047 250.281C125.5 241.124 139.499 231.654 159.507 237.016C179.516 242.377 196.823 264.77 193.861 275.823C191.408 284.979 181.469 297.511 159.645 292.993C125.357 285.896 120.593 259.437 123.047 250.281Z" fill="url(#paint0_radial_136_1878)"/>
</g>
<rect x="160.555" y="293.357" width="19.7319" height="1.90711" transform="rotate(-165 160.555 293.357)" fill="#FFFAE0" fill-opacity="0.4"/>
<rect x="173.879" y="292.324" width="44.9639" height="1.90711" transform="rotate(-165 173.879 292.324)" fill="#FFFAE0" fill-opacity="0.4"/>
<rect x="181.281" y="289.699" width="57.8809" height="1.90711" transform="rotate(-165 181.281 289.699)" fill="#FFFAE0" fill-opacity="0.4"/>
<rect x="186.418" y="286.469" width="66.1414" height="1.90711" transform="rotate(-165 186.418 286.469)" fill="#FFFAE0" fill-opacity="0.4"/>
<rect x="190.102" y="282.85" width="71.3807" height="1.90711" transform="rotate(-165 190.102 282.85)" fill="#FFFAE0" fill-opacity="0.4"/>
<rect x="192.633" y="278.92" width="74.2413" height="1.90711" transform="rotate(-165 192.633 278.92)" fill="#FFFAE0" fill-opacity="0.4"/>
<rect x="194.152" y="274.721" width="74.9958" height="1.90711" transform="rotate(-165 194.152 274.721)" fill="#FFFAE0" fill-opacity="0.4"/>
<rect x="194.684" y="270.256" width="73.709" height="1.90711" transform="rotate(-165 194.684 270.256)" fill="#FFFAE0" fill-opacity="0.4"/>
<rect x="194.164" y="265.51" width="70.2687" height="1.90711" transform="rotate(-165 194.164 265.51)" fill="#FFFAE0" fill-opacity="0.4"/>
<rect x="192.449" y="260.443" width="64.3305" height="1.90711" transform="rotate(-165 192.449 260.443)" fill="#FFFAE0" fill-opacity="0.4"/>
<rect x="189.141" y="254.953" width="55.0924" height="1.90711" transform="rotate(-165 189.141 254.953)" fill="#FFFAE0" fill-opacity="0.4"/>
<rect x="183.172" y="248.744" width="40.3481" height="1.90711" transform="rotate(-165 183.172 248.744)" fill="#FFFAE0" fill-opacity="0.4"/>
<g filter="url(#filter2_dddd_136_1878)">
<path d="M282.61 250.283C280.156 241.126 266.157 231.656 246.149 237.018C226.141 242.379 208.833 264.772 211.795 275.825C214.248 284.981 224.187 297.513 246.011 292.995C280.299 285.898 285.063 259.439 282.61 250.283Z" fill="url(#paint1_radial_136_1878)"/>
</g>
<rect width="19.7319" height="1.90711" transform="matrix(0.965926 -0.258819 -0.258819 -0.965926 245.105 293.359)" fill="#FFFAE0" fill-opacity="0.4"/>
<rect width="44.9639" height="1.90711" transform="matrix(0.965926 -0.258819 -0.258819 -0.965926 231.773 292.326)" fill="#FFFAE0" fill-opacity="0.4"/>
<rect width="57.8809" height="1.90711" transform="matrix(0.965926 -0.258819 -0.258819 -0.965926 224.379 289.701)" fill="#FFFAE0" fill-opacity="0.4"/>
<rect width="66.1414" height="1.90711" transform="matrix(0.965926 -0.258819 -0.258819 -0.965926 219.238 286.471)" fill="#FFFAE0" fill-opacity="0.4"/>
<rect width="71.3807" height="1.90711" transform="matrix(0.965926 -0.258819 -0.258819 -0.965926 215.562 282.852)" fill="#FFFAE0" fill-opacity="0.4"/>
<rect width="74.2413" height="1.90711" transform="matrix(0.965926 -0.258819 -0.258819 -0.965926 213.031 278.922)" fill="#FFFAE0" fill-opacity="0.4"/>
<rect width="74.9958" height="1.90711" transform="matrix(0.965926 -0.258819 -0.258819 -0.965926 211.508 274.723)" fill="#FFFAE0" fill-opacity="0.4"/>
<rect width="73.709" height="1.90711" transform="matrix(0.965926 -0.258819 -0.258819 -0.965926 210.98 270.258)" fill="#FFFAE0" fill-opacity="0.4"/>
<rect width="70.2687" height="1.90711" transform="matrix(0.965926 -0.258819 -0.258819 -0.965926 211.5 265.512)" fill="#FFFAE0" fill-opacity="0.4"/>
<rect width="64.3305" height="1.90711" transform="matrix(0.965926 -0.258819 -0.258819 -0.965926 213.207 260.445)" fill="#FFFAE0" fill-opacity="0.4"/>
<rect width="55.0924" height="1.90711" transform="matrix(0.965926 -0.258819 -0.258819 -0.965926 216.512 254.955)" fill="#FFFAE0" fill-opacity="0.4"/>
<rect width="40.3481" height="1.90711" transform="matrix(0.965926 -0.258819 -0.258819 -0.965926 222.492 248.746)" fill="#FFFAE0" fill-opacity="0.4"/>
<defs>
<filter id="filter0_d_136_1878" x="0.000595093" y="0.000595093" width="404.37" height="404.368" filterUnits="userSpaceOnUse" color-interpolation-filters="sRGB">
<feFlood flood-opacity="0" result="BackgroundImageFix"/>
<feColorMatrix in="SourceAlpha" type="matrix" values="0 0 0 0 0 0 0 0 0 0 0 0 0 0 0 0 0 0 127 0" result="hardAlpha"/>
<feOffset/>
<feGaussianBlur stdDeviation="39.8942"/>
<feComposite in2="hardAlpha" operator="out"/>
<feColorMatrix type="matrix" values="0 0 0 0 0.972549 0 0 0 0 0.27451 0 0 0 0 0 0 0 0 0.5 0"/>
<feBlend mode="normal" in2="BackgroundImageFix" result="effect1_dropShadow_136_1878"/>
<feBlend mode="normal" in="SourceGraphic" in2="effect1_dropShadow_136_1878" result="shape"/>
</filter>
<filter id="filter1_dddd_136_1878" x="10.6165" y="123.574" width="295.458" height="282.255" filterUnits="userSpaceOnUse" color-interpolation-filters="sRGB">
<feFlood flood-opacity="0" result="BackgroundImageFix"/>
<feColorMatrix in="SourceAlpha" type="matrix" values="0 0 0 0 0 0 0 0 0 0 0 0 0 0 0 0 0 0 127 0" result="hardAlpha"/>
<feMorphology radius="2.54281" operator="dilate" in="SourceAlpha" result="effect1_dropShadow_136_1878"/>
<feOffset/>
<feGaussianBlur stdDeviation="5.08561"/>
<feComposite in2="hardAlpha" operator="out"/>
<feColorMatrix type="matrix" values="0 0 0 0 1 0 0 0 0 0.85 0 0 0 0 0.3 0 0 0 0.9 0"/>
<feBlend mode="normal" in2="BackgroundImageFix" result="effect1_dropShadow_136_1878"/>
<feColorMatrix in="SourceAlpha" type="matrix" values="0 0 0 0 0 0 0 0 0 0 0 0 0 0 0 0 0 0 127 0" result="hardAlpha"/>
<feMorphology radius="5.08561" operator="dilate" in="SourceAlpha" result="effect2_dropShadow_136_1878"/>
<feOffset/>
<feGaussianBlur stdDeviation="12.714"/>
<feComposite in2="hardAlpha" operator="out"/>
<feColorMatrix type="matrix" values="0 0 0 0 1 0 0 0 0 0.6 0 0 0 0 0.15 0 0 0 0.7 0"/>
<feBlend mode="normal" in2="effect1_dropShadow_136_1878" result="effect2_dropShadow_136_1878"/>
<feColorMatrix in="SourceAlpha" type="matrix" values="0 0 0 0 0 0 0 0 0 0 0 0 0 0 0 0 0 0 127 0" result="hardAlpha"/>
<feMorphology radius="7.62842" operator="dilate" in="SourceAlpha" result="effect3_dropShadow_136_1878"/>
<feOffset/>
<feGaussianBlur stdDeviation="28.6066"/>
<feComposite in2="hardAlpha" operator="out"/>
<feColorMatrix type="matrix" values="0 0 0 0 1 0 0 0 0 0.45 0 0 0 0 0.1 0 0 0 0.45 0"/>
<feBlend mode="normal" in2="effect2_dropShadow_136_1878" result="effect3_dropShadow_136_1878"/>
<feColorMatrix in="SourceAlpha" type="matrix" values="0 0 0 0 0 0 0 0 0 0 0 0 0 0 0 0 0 0 127 0" result="hardAlpha"/>
<feMorphology radius="10.1712" operator="dilate" in="SourceAlpha" result="effect4_dropShadow_136_1878"/>
<feOffset/>
<feGaussianBlur stdDeviation="50.8561"/>
<feComposite in2="hardAlpha" operator="out"/>
<feColorMatrix type="matrix" values="0 0 0 0 0.9 0 0 0 0 0.3 0 0 0 0 0.05 0 0 0 0.25 0"/>
<feBlend mode="normal" in2="effect3_dropShadow_136_1878" result="effect4_dropShadow_136_1878"/>
<feBlend mode="normal" in="SourceGraphic" in2="effect4_dropShadow_136_1878" result="shape"/>
</filter>
<filter id="filter2_dddd_136_1878" x="99.5814" y="123.575" width="295.458" height="282.255" filterUnits="userSpaceOnUse" color-interpolation-filters="sRGB">
<feFlood flood-opacity="0" result="BackgroundImageFix"/>
<feColorMatrix in="SourceAlpha" type="matrix" values="0 0 0 0 0 0 0 0 0 0 0 0 0 0 0 0 0 0 127 0" result="hardAlpha"/>
<feMorphology radius="2.54281" operator="dilate" in="SourceAlpha" result="effect1_dropShadow_136_1878"/>
<feOffset/>
<feGaussianBlur stdDeviation="5.08561"/>
<feComposite in2="hardAlpha" operator="out"/>
<feColorMatrix type="matrix" values="0 0 0 0 1 0 0 0 0 0.85 0 0 0 0 0.3 0 0 0 0.9 0"/>
<feBlend mode="normal" in2="BackgroundImageFix" result="effect1_dropShadow_136_1878"/>
<feColorMatrix in="SourceAlpha" type="matrix" values="0 0 0 0 0 0 0 0 0 0 0 0 0 0 0 0 0 0 127 0" result="hardAlpha"/>
<feMorphology radius="5.08561" operator="dilate" in="SourceAlpha" result="effect2_dropShadow_136_1878"/>
<feOffset/>
<feGaussianBlur stdDeviation="12.714"/>
<feComposite in2="hardAlpha" operator="out"/>
<feColorMatrix type="matrix" values="0 0 0 0 1 0 0 0 0 0.6 0 0 0 0 0.15 0 0 0 0.7 0"/>
<feBlend mode="normal" in2="effect1_dropShadow_136_1878" result="effect2_dropShadow_136_1878"/>
<feColorMatrix in="SourceAlpha" type="matrix" values="0 0 0 0 0 0 0 0 0 0 0 0 0 0 0 0 0 0 127 0" result="hardAlpha"/>
<feMorphology radius="7.62842" operator="dilate" in="SourceAlpha" result="effect3_dropShadow_136_1878"/>
<feOffset/>
<feGaussianBlur stdDeviation="28.6066"/>
<feComposite in2="hardAlpha" operator="out"/>
<feColorMatrix type="matrix" values="0 0 0 0 1 0 0 0 0 0.45 0 0 0 0 0.1 0 0 0 0.45 0"/>
<feBlend mode="normal" in2="effect2_dropShadow_136_1878" result="effect3_dropShadow_136_1878"/>
<feColorMatrix in="SourceAlpha" type="matrix" values="0 0 0 0 0 0 0 0 0 0 0 0 0 0 0 0 0 0 127 0" result="hardAlpha"/>
<feMorphology radius="10.1712" operator="dilate" in="SourceAlpha" result="effect4_dropShadow_136_1878"/>
<feOffset/>
<feGaussianBlur stdDeviation="50.8561"/>
<feComposite in2="hardAlpha" operator="out"/>
<feColorMatrix type="matrix" values="0 0 0 0 0.9 0 0 0 0 0.3 0 0 0 0 0.05 0 0 0 0.25 0"/>
<feBlend mode="normal" in2="effect3_dropShadow_136_1878" result="effect4_dropShadow_136_1878"/>
<feBlend mode="normal" in="SourceGraphic" in2="effect4_dropShadow_136_1878" result="shape"/>
</filter>
<radialGradient id="paint0_radial_136_1878" cx="0" cy="0" r="1" gradientUnits="userSpaceOnUse" gradientTransform="translate(159.156 265.344) rotate(-159.726) scale(41.4963 29.9569)">
<stop stop-color="#FFF2BF"/>
<stop offset="0.60393" stop-color="#FFBF59"/>
<stop offset="1" stop-color="#F27326"/>
</radialGradient>
<radialGradient id="paint1_radial_136_1878" cx="0" cy="0" r="1" gradientUnits="userSpaceOnUse" gradientTransform="translate(246.5 265.346) rotate(-20.2739) scale(41.4963 29.9569)">
<stop stop-color="#FFF2BF"/>
<stop offset="0.60393" stop-color="#FFBF59"/>
<stop offset="1" stop-color="#F27326"/>
</radialGradient>
</defs>
</svg>
